Coordinates
version=1
nRows=79
nColumns=19
inDegrees=yes

Units are S.I. units (second, meters, Newtons, ...)
Angles are in degrees.

endheader
time	1_Force_X	1_Force_Y	1_Force_Z	1_Moment_X	1_Moment_Y	1_Moment_Z	1_COP_X	1_COP_Y	1_COP_Z	2_Force_X	2_Force_Y	2_Force_Z	2_Moment_X	2_Moment_Y	2_Moment_Z	2_COP_X	2_COP_Y	2_COP_Z
0.8975	-11.615	816.204	36.841	-0.295	0.000	0.523	19.862	731.378	14.083	-0.360	0.000	0.132	0.00000	8.96624	0.00000	0.00000	-4.15229	0.00000
0.9000	-10.745	821.590	36.215	-0.295	0.000	0.523	19.638	738.776	15.762	-0.360	0.000	0.132	0.00000	9.08918	0.00000	0.00000	-4.22840	0.00000
0.9025	-9.693	825.417	35.768	-0.295	0.000	0.522	19.456	744.635	17.827	-0.360	0.000	0.131	0.00000	9.23496	0.00000	0.00000	-4.13764	0.00000
0.9050	-8.997	830.636	35.498	-0.295	0.000	0.521	19.364	750.487	19.327	-0.361	0.000	0.131	0.00000	9.38766	0.00000	0.00000	-4.16176	0.00000
0.9075	-8.737	834.464	35.053	-0.295	0.000	0.521	19.097	756.854	20.782	-0.361	0.000	0.131	0.00000	9.43793	0.00000	0.00000	-4.19265	0.00000
0.9100	-8.219	839.862	34.520	-0.294	0.000	0.520	18.874	763.222	22.238	-0.361	0.000	0.130	0.00000	9.64004	0.00000	0.00000	-4.22357	0.00000
0.9125	-7.783	844.042	34.341	-0.294	0.000	0.519	18.999	767.874	23.779	-0.361	0.000	0.130	0.00000	9.77323	0.00000	0.00000	-4.19125	0.00000
0.9150	-7.084	849.955	34.068	-0.294	0.000	0.519	18.992	773.385	25.452	-0.361	0.000	0.130	0.00000	9.91067	0.00000	0.00000	-4.17383	0.00000
0.9175	-6.122	853.433	33.975	-0.294	0.000	0.518	19.249	778.208	26.951	-0.361	0.000	0.129	0.00000	10.10049	0.00000	0.00000	-4.14594	0.00000
0.9200	-6.474	857.612	34.414	-0.294	0.000	0.518	19.462	781.311	28.182	-0.362	0.000	0.129	0.00000	10.14304	0.00000	0.00000	-4.08639	0.00000
0.9225	-5.993	861.087	34.408	-0.294	0.000	0.518	20.329	784.071	29.635	-0.362	0.000	0.129	0.00000	10.20275	0.00000	0.00000	-4.05168	0.00000
0.9250	-6.261	862.661	34.147	-0.294	0.000	0.517	20.324	787.002	30.817	-0.362	0.000	0.128	0.00000	10.23079	0.00000	0.00000	-4.01898	0.00000
0.9275	-6.747	864.934	33.665	-0.294	0.000	0.516	20.979	788.896	31.305	-0.362	0.000	0.128	0.00000	10.23159	0.00000	0.00000	-3.98600	0.00000
0.9300	-7.548	867.552	33.140	-0.294	0.000	0.516	20.976	791.308	31.920	-0.362	0.000	0.128	0.00000	10.25748	0.00000	0.00000	-3.95358	0.00000
0.9325	-7.953	869.472	32.393	-0.294	0.000	0.515	21.279	793.375	32.579	-0.362	0.000	0.127	0.00000	10.30884	0.00000	0.00000	-3.94634	0.00000
0.9350	-8.705	871.217	31.734	-0.294	0.000	0.515	21.805	795.610	32.540	-0.362	0.000	0.127	0.00000	10.20300	0.00000	0.00000	-3.90992	0.00000
0.9375	-9.902	871.584	30.687	-0.294	0.000	0.514	21.986	798.526	31.803	-0.362	0.000	0.127	0.00000	10.24002	0.00000	0.00000	-3.93880	0.00000
0.9400	-10.612	871.765	30.120	-0.295	0.000	0.514	22.512	798.356	31.671	-0.362	0.000	0.126	0.00000	10.16691	0.00000	0.00000	-3.84909	0.00000
0.9425	-11.455	870.564	29.073	-0.295	0.000	0.513	23.213	798.702	31.542	-0.362	0.000	0.126	0.00000	10.16842	0.00000	0.00000	-3.75083	0.00000
0.9450	-12.475	869.704	28.201	-0.295	0.000	0.513	24.217	797.679	31.890	-0.363	0.000	0.125	0.00000	10.08389	0.00000	0.00000	-3.56423	0.00000
0.9475	-13.362	869.020	27.372	-0.295	0.000	0.513	24.961	798.369	31.893	-0.363	0.000	0.125	0.00000	10.06601	0.00000	0.00000	-3.48045	0.00000
0.9500	-14.291	867.117	26.412	-0.295	0.000	0.512	26.008	797.512	31.849	-0.363	0.000	0.125	0.00000	9.94457	0.00000	0.00000	-3.40869	0.00000
0.9525	-15.266	865.559	25.362	-0.295	0.000	0.512	27.145	797.004	31.939	-0.362	0.000	0.124	0.00000	9.83135	0.00000	0.00000	-3.19381	0.00000
0.9550	-16.325	862.623	24.672	-0.295	0.000	0.511	28.592	796.318	31.198	-0.363	0.000	0.124	0.00000	9.80201	0.00000	0.00000	-3.00341	0.00000
0.9575	-17.392	862.978	23.532	-0.295	0.000	0.511	29.295	795.799	30.324	-0.362	0.000	0.124	0.00000	9.74874	0.00000	0.00000	-2.94283	0.00000
0.9600	-18.627	860.737	22.842	-0.296	0.000	0.510	30.826	793.910	30.065	-0.362	0.000	0.124	0.00000	9.65251	0.00000	0.00000	-2.81552	0.00000
0.9625	-19.603	858.652	22.188	-0.296	0.000	0.510	32.312	791.509	29.801	-0.362	0.000	0.123	0.00000	9.52440	0.00000	0.00000	-2.59888	0.00000
0.9650	-20.926	856.579	21.495	-0.296	0.000	0.510	33.274	788.933	29.623	-0.362	0.000	0.123	0.00000	9.41557	0.00000	0.00000	-2.48116	0.00000
0.9675	-22.558	855.373	20.932	-0.296	0.000	0.510	34.282	787.212	28.793	-0.362	0.000	0.123	0.00000	9.26337	0.00000	0.00000	-2.38110	0.00000
0.9700	-24.412	853.825	20.329	-0.296	0.000	0.509	35.416	784.809	28.702	-0.362	0.000	0.123	0.00000	9.14293	0.00000	0.00000	-2.29006	0.00000
0.9725	-25.693	851.048	19.855	-0.297	0.000	0.509	36.728	781.032	28.436	-0.362	0.000	0.123	0.00000	8.94540	0.00000	0.00000	-2.07607	0.00000
0.9750	-27.589	851.410	19.556	-0.297	0.000	0.509	37.123	779.650	27.513	-0.362	0.000	0.122	0.00000	8.82460	0.00000	0.00000	-2.14200	0.00000
0.9775	-29.266	849.333	19.304	-0.297	0.000	0.509	37.561	777.245	27.160	-0.362	0.000	0.122	0.00000	8.65812	0.00000	0.00000	-2.04177	0.00000
0.9800	-30.934	846.044	19.451	-0.297	0.000	0.509	38.520	774.154	27.242	-0.362	0.000	0.122	0.00000	8.47296	0.00000	0.00000	-1.96636	0.00000
0.9825	-32.791	845.524	19.238	-0.298	0.000	0.509	39.307	771.918	26.801	-0.362	0.000	0.122	0.00000	8.28084	0.00000	0.00000	-1.94214	0.00000
0.9850	-34.990	844.502	19.253	-0.298	0.000	0.509	39.483	769.677	26.009	-0.361	0.000	0.122	0.00000	8.12268	0.00000	0.00000	-2.01157	0.00000
0.9875	-36.882	842.949	19.440	-0.298	0.000	0.509	39.924	766.748	24.996	-0.361	0.000	0.122	0.00000	7.94811	0.00000	0.00000	-2.01083	0.00000
0.9900	-38.647	841.394	19.144	-0.299	0.000	0.508	40.186	764.683	24.599	-0.361	0.000	0.122	0.00000	7.76165	0.00000	0.00000	-2.01447	0.00000
0.9925	-40.499	840.532	18.977	-0.299	0.000	0.508	40.406	762.447	24.155	-0.361	0.000	0.122	0.00000	7.58341	0.00000	0.00000	-1.97755	0.00000
0.9950	-42.265	838.801	18.547	-0.299	0.000	0.508	40.712	760.205	23.496	-0.361	0.000	0.122	0.00000	7.40043	0.00000	0.00000	-2.08653	0.00000
0.9975	-44.248	835.338	17.945	-0.299	0.000	0.508	41.410	758.312	23.188	-0.361	0.000	0.122	0.00000	7.22591	0.00000	0.00000	-2.10179	0.00000
1.0000	-45.264	832.378	17.599	-0.300	0.000	0.508	42.069	754.871	22.439	-0.361	0.000	0.122	0.00000	6.99044	0.00000	0.00000	-2.04167	0.00000
1.0025	-46.899	830.305	16.863	-0.300	0.000	0.508	42.375	752.803	21.909	-0.361	0.000	0.122	0.00000	6.86657	0.00000	0.00000	-2.11700	0.00000
1.0050	-48.092	826.662	16.214	-0.300	0.000	0.508	42.858	751.245	20.989	-0.361	0.000	0.122	0.00000	6.78533	0.00000	0.00000	-2.25831	0.00000
1.0075	-49.733	824.582	15.166	-0.301	0.000	0.508	42.904	750.038	20.330	-0.361	0.000	0.122	0.00000	6.67981	0.00000	0.00000	-2.27660	0.00000
1.0100	-50.750	820.762	14.163	-0.301	0.000	0.508	43.866	747.448	19.498	-0.361	0.000	0.122	0.00000	6.50878	0.00000	0.00000	-2.43329	0.00000
1.0125	-52.304	819.902	12.761	-0.301	0.000	0.508	43.612	747.780	17.925	-0.360	0.000	0.122	0.00000	6.44561	0.00000	0.00000	-2.51427	0.00000
1.0150	-53.547	816.084	11.496	-0.301	0.000	0.508	44.051	745.358	16.871	-0.360	0.000	0.122	0.00000	6.34402	0.00000	0.00000	-2.75571	0.00000
1.0175	-54.530	814.177	9.785	-0.302	0.000	0.507	44.403	744.835	16.085	-0.360	0.000	0.122	0.00000	6.29686	0.00000	0.00000	-2.83076	0.00000
1.0200	-55.245	810.700	8.293	-0.302	0.000	0.507	44.754	742.422	15.468	-0.360	0.000	0.122	0.00000	6.23166	0.00000	0.00000	-2.88762	0.00000
1.0225	-56.048	808.098	6.671	-0.302	0.000	0.507	44.890	741.549	14.285	-0.360	0.000	0.122	0.00000	6.17298	0.00000	0.00000	-3.06192	0.00000
1.0250	-56.898	805.317	5.003	-0.302	0.000	0.507	44.894	742.224	13.415	-0.360	0.000	0.123	0.00000	6.11433	0.00000	0.00000	-3.24865	0.00000
1.0275	-57.660	803.233	3.377	-0.302	0.000	0.507	44.939	741.869	12.713	-0.360	0.000	0.123	0.00000	6.13452	0.00000	0.00000	-3.45218	0.00000
1.0300	-58.466	800.797	1.664	-0.303	0.000	0.507	44.812	742.027	11.708	-0.360	0.000	0.123	0.00000	6.03354	0.00000	0.00000	-3.64839	0.00000
1.0325	-58.967	800.284	-0.226	-0.303	0.000	0.507	44.726	742.875	11.143	-0.360	0.000	0.123	0.00000	6.13357	0.00000	0.00000	-3.88213	0.00000
1.0350	-59.946	799.073	-1.939	-0.303	0.000	0.507	44.424	745.267	10.317	-0.360	0.000	0.123	0.00000	6.07364	0.00000	0.00000	-4.15425	0.00000
1.0375	-60.317	799.246	-3.879	-0.303	0.000	0.507	44.602	746.627	9.493	-0.360	0.000	0.124	0.00000	6.15390	0.00000	0.00000	-4.42486	0.00000
1.0400	-60.859	799.068	-5.597	-0.303	0.000	0.507	44.606	747.649	8.664	-0.360	0.000	0.124	0.00000	6.07613	0.00000	0.00000	-4.55433	0.00000
1.0425	-61.011	798.369	-7.492	-0.303	0.000	0.507	44.781	749.357	8.450	-0.360	0.000	0.124	0.00000	6.18755	0.00000	0.00000	-4.75857	0.00000
1.0450	-61.594	798.900	-8.678	-0.303	0.000	0.507	44.876	751.921	7.366	-0.360	0.000	0.124	0.00000	6.28331	0.00000	0.00000	-4.93448	0.00000
1.0475	-61.916	800.639	-9.959	-0.303	0.000	0.507	44.970	755.517	6.326	-0.360	0.000	0.124	0.00000	6.35591	0.00000	0.00000	-5.13559	0.00000
1.0500	-61.977	804.105	-11.069	-0.303	0.000	0.507	45.109	758.593	4.935	-0.360	0.000	0.124	0.00000	6.41412	0.00000	0.00000	-5.35715	0.00000
1.0525	-62.647	807.247	-11.817	-0.303	0.000	0.507	44.939	762.356	3.896	-0.360	0.000	0.124	0.00000	6.53593	0.00000	0.00000	-5.71052	0.00000
1.0550	-62.963	809.689	-12.391	-0.303	0.000	0.507	45.295	763.717	2.854	-0.360	0.000	0.124	0.00000	6.65003	0.00000	0.00000	-5.86755	0.00000
1.0575	-62.972	811.250	-13.056	-0.303	0.000	0.507	46.173	766.973	2.299	-0.360	0.000	0.124	0.00000	6.75165	0.00000	0.00000	-5.98636	0.00000
1.0600	-62.851	815.594	-13.239	-0.303	0.000	0.507	46.618	770.050	1.043	-0.361	0.000	0.125	0.00000	6.92369	0.00000	0.00000	-6.20833	0.00000
1.0625	-63.252	820.821	-13.243	-0.302	0.000	0.507	46.802	775.190	-0.430	-0.360	0.000	0.125	0.00000	7.08998	0.00000	0.00000	-6.40455	0.00000
1.0650	-63.171	824.477	-13.379	-0.302	0.000	0.507	47.289	778.268	-1.467	-0.360	0.000	0.125	0.00000	7.25824	0.00000	0.00000	-6.62933	0.00000
1.0675	-62.917	828.996	-13.696	-0.302	0.000	0.507	47.210	782.205	-2.638	-0.361	0.000	0.125	0.00000	7.47788	0.00000	0.00000	-6.84157	0.00000
1.0700	-62.965	833.864	-13.439	-0.302	0.000	0.507	47.611	786.489	-3.585	-0.361	0.000	0.125	0.00000	7.58353	0.00000	0.00000	-7.00346	0.00000
1.0725	-62.397	839.256	-13.227	-0.302	0.000	0.507	48.275	790.254	-4.839	-0.361	0.000	0.125	0.00000	7.78896	0.00000	0.00000	-7.19288	0.00000
1.0750	-61.965	844.468	-13.326	-0.301	0.000	0.507	48.766	794.879	-6.136	-0.361	0.000	0.125	0.00000	7.95669	0.00000	0.00000	-7.32969	0.00000
1.0775	-61.524	847.255	-12.977	-0.301	0.000	0.507	49.512	797.447	-6.563	-0.361	0.000	0.125	0.00000	8.12345	0.00000	0.00000	-7.47517	0.00000
1.0800	-60.956	852.124	-12.544	-0.301	0.000	0.507	49.170	801.387	-7.472	-0.361	0.000	0.125	0.00000	8.36896	0.00000	0.00000	-7.65131	0.00000
1.0825	-60.607	858.038	-12.024	-0.301	0.000	0.507	49.005	807.042	-8.724	-0.361	0.000	0.125	0.00000	8.53380	0.00000	0.00000	-7.90086	0.00000
1.0850	-60.035	862.905	-11.813	-0.300	0.000	0.507	49.534	811.330	-9.278	-0.362	0.000	0.126	0.00000	8.66111	0.00000	0.00000	-8.03107	0.00000
1.0875	-59.329	866.556	-11.468	-0.300	0.000	0.506	49.318	815.445	-9.399	-0.362	0.000	0.126	0.00000	8.77382	0.00000	0.00000	-8.23810	0.00000
1.0900	-58.763	870.731	-11.254	-0.300	0.000	0.506	49.585	819.045	-9.912	-0.362	0.000	0.126	0.00000	9.01583	0.00000	0.00000	-8.36625	0.00000
1.0925	-57.876	874.034	-10.512	-0.300	0.000	0.506	49.634	822.989	-10.425	-0.362	0.000	0.126	0.00000	9.10674	0.00000	0.00000	-8.48983	0.00000
